<svg width="1080" height="1080" viewBox="0 0 1080 1080" fill="none" xmlns="http://www.w3.org/2000/svg">
<g clip-path="url(#clip0_2_2)">
<path d="M744.42 670.13H721.27L709.69 650.13L610.5 478.24L598.83 458.14L580.58 426.46L568.91 406.36L549.19 372.1L529.47 406.36L517.89 426.46L499.55 458.14L487.97 478.24L388.69 650.13H428.24L507.7 512.5L519.28 492.41L537.61 460.64L549.19 440.54L560.77 460.64L579.1 492.41L590.68 512.42V512.5L670.24 650.13L681.71 670.13H598.74L587.15 650.13L549.19 584.38L511.22 650.13L499.73 670.13H476.48L488.06 650.13L537.61 564.28L549.19 544.18L560.77 564.28L610.32 650.13H646.99L579.1 532.5L567.52 512.5L549.19 480.74L530.86 512.5L519.28 532.5L451.39 650.13L439.81 670.13H353.96L365.53 650.13L476.4 458.23V458.14L487.97 438.14L506.31 406.36L517.89 386.28L537.61 352.1L549.19 332L560.77 352V352.1L580.58 386.28L592.16 406.36L610.5 438.14L622.07 458.14L732.84 650.13L744.42 670.13Z" fill="white"/>
<path d="M605.53 417.49C616.037 415.19 626.587 413.067 637.18 411.12C647.773 409.173 658.413 407.507 669.1 406.12C679.767 404.653 690.483 403.487 701.25 402.62C712.01 401.77 722.8 401.25 733.63 401.23C744.492 401.155 755.346 401.85 766.11 403.31C771.556 404.072 776.94 405.225 782.22 406.76C787.681 408.279 792.863 410.663 797.57 413.82C800.037 415.531 802.188 417.655 803.93 420.1C804.809 421.387 805.547 422.765 806.13 424.21C806.658 425.688 807.033 427.216 807.25 428.77C807.552 431.828 807.253 434.916 806.37 437.86L805.67 439.97C805.419 440.652 805.132 441.319 804.81 441.97C804.224 443.294 803.556 444.579 802.81 445.82C799.905 450.634 796.43 455.079 792.46 459.06C788.598 462.978 784.511 466.668 780.22 470.11C763.15 483.83 744.33 494.81 725.16 504.83C705.99 514.85 686.16 523.69 666.16 531.9C656.16 536 646.08 539.9 635.94 543.57C625.8 547.24 615.6 550.84 605.35 554.23C584.85 561.01 564.183 567.207 543.35 572.82C522.517 578.433 501.503 583.37 480.31 587.63C459.14 591.9 437.83 595.58 416.36 598.22C394.872 600.989 373.235 602.445 351.57 602.58C340.663 602.631 329.764 601.983 318.94 600.64C313.469 599.929 308.045 598.887 302.7 597.52C297.214 596.184 291.917 594.168 286.93 591.52C284.33 590.113 281.92 588.379 279.76 586.36C277.479 584.226 275.668 581.642 274.44 578.77C273.25 575.827 272.78 572.642 273.07 569.48C273.391 566.481 274.195 563.553 275.45 560.81C277.893 555.675 281.122 550.951 285.02 546.81C288.739 542.743 292.75 538.953 297.02 535.47C305.467 528.609 314.378 522.341 323.69 516.71C332.92 511.05 342.39 505.81 352 500.9C371.25 491.11 391 482.44 411.07 474.56C421.07 470.627 431.167 466.88 441.36 463.32C451.553 459.76 461.77 456.38 472.01 453.18C461.877 456.78 451.797 460.527 441.77 464.42C431.743 468.313 421.787 472.367 411.9 476.58C392.16 485.05 372.66 494.12 353.82 504.34C344.39 509.44 335.11 514.79 326.12 520.57C317.124 526.262 308.53 532.567 300.4 539.44C296.406 542.845 292.651 546.521 289.16 550.44C285.721 554.193 282.881 558.453 280.74 563.07C279.781 565.24 279.173 567.549 278.94 569.91C278.768 572.129 279.128 574.358 279.99 576.41C281.73 580.47 285.55 583.67 289.93 586C294.49 588.333 299.32 590.096 304.31 591.25C309.414 592.47 314.586 593.382 319.8 593.98C330.342 595.185 340.95 595.719 351.56 595.58C372.929 595.262 394.259 593.639 415.43 590.72C457.88 585.15 499.91 576.2 541.32 565.08C582.78 554.122 623.55 540.698 663.41 524.88C683.29 516.88 702.92 508.3 721.98 498.61C731.5 493.76 740.88 488.61 749.98 483.14C759.126 477.729 767.926 471.754 776.33 465.25C780.474 462.011 784.431 458.539 788.18 454.85C791.875 451.254 795.122 447.225 797.85 442.85C798.499 441.793 799.084 440.698 799.6 439.57C799.876 439.023 800.123 438.463 800.34 437.89L800.94 436.18C801.641 433.968 801.912 431.643 801.74 429.33C801.586 428.223 801.335 427.132 800.99 426.07C800.586 425.017 800.07 424.012 799.45 423.07C798.09 421.1 796.398 419.381 794.45 417.99C790.252 415.07 785.613 412.842 780.71 411.39C775.687 409.818 770.557 408.612 765.36 407.78C754.825 406.145 744.19 405.247 733.53 405.09C712.13 404.58 690.67 406.03 669.31 408.26C658.643 409.38 647.977 410.713 637.31 412.26C626.643 413.807 616.05 415.55 605.53 417.49Z" fill="white"/>
<path d="M451.31 741.74H436.31L434.47 746.51H426.78L443.78 704.08L460.88 746.51H453.19L451.31 741.74ZM438.61 735.74H448.99L443.8 721.42L438.61 735.74Z" fill="white"/>
<path d="M506.56 733.31V705.26H513.7V733.31C514.07 738.08 518.04 740.2 522.56 740.2C527.08 740.2 531.48 737.91 531.48 733.31V705.26H538.62V733.31C538.62 742.09 531.62 747.1 522.56 747.1C513.76 747.1 506.56 741.8 506.56 733.31Z" fill="white"/>
<path d="M602.03 729.3H596.23V746.51H589.08V705.26H603.31C603.31 705.26 617.6 705.26 617.6 717.26C617.6 723.92 613.2 726.87 609.35 728.26L618.09 746.53H610.21L602.03 729.3ZM596.23 722.46H603.31C603.31 722.46 610.45 722.46 610.45 717.28C610.45 712.1 603.31 712.15 603.31 712.15H596.22L596.23 722.46Z" fill="white"/>
<path d="M686.31 741.74H671.31L669.47 746.51H661.78L678.78 704.08L695.88 746.51H688.19L686.31 741.74ZM673.61 735.74H684.01L678.82 721.42L673.61 735.74Z" fill="white"/>
</g>
<defs>
<clipPath id="clip0_2_2">
<rect width="534.39" height="415.1" fill="white" transform="translate(273 332)"/>
</clipPath>
</defs>
</svg>
