<svg id="Layer_1" data-name="Layer 1" xmlns="http://www.w3.org/2000/svg" viewBox="0 0 534.39 415.1"><defs><style>.cls-1{fill:#231f20;}</style></defs><title>aura shopping</title><polygon class="cls-1" points="471.42 338.13 448.27 338.13 436.69 318.13 337.5 146.24 325.83 126.14 307.58 94.46 295.91 74.36 276.19 40.1 256.47 74.36 244.89 94.46 226.55 126.14 214.97 146.24 115.69 318.13 155.24 318.13 234.7 180.5 246.28 160.41 264.61 128.64 276.19 108.54 287.77 128.64 306.1 160.41 317.68 180.42 317.68 180.5 397.24 318.13 408.71 338.13 325.74 338.13 314.15 318.13 276.19 252.38 238.22 318.13 226.73 338.13 203.48 338.13 215.06 318.13 264.61 232.28 276.19 212.18 287.77 232.28 337.32 318.13 373.99 318.13 306.1 200.5 294.52 180.5 276.19 148.74 257.86 180.5 246.28 200.5 178.39 318.13 166.81 338.13 80.96 338.13 92.53 318.13 203.4 126.23 203.4 126.14 214.97 106.14 233.31 74.36 244.89 54.28 264.61 20.1 276.19 0 287.77 20 287.77 20.1 307.58 54.28 319.16 74.36 337.5 106.14 349.07 126.14 459.84 318.13 471.42 338.13"/><path class="cls-1" d="M614.22,250.91q15.76-3.45,31.65-6.37t31.92-5q16-2.2,32.15-3.5c10.76-.85,21.55-1.37,32.38-1.39a229.94,229.94,0,0,1,32.48,2.08,114.48,114.48,0,0,1,16.11,3.45,53.11,53.11,0,0,1,15.35,7.06,26,26,0,0,1,6.36,6.28,21.59,21.59,0,0,1,2.2,4.11,23,23,0,0,1,1.12,4.56,23.57,23.57,0,0,1-.88,9.09l-.7,2.11a20.25,20.25,0,0,1-.86,2,34.91,34.91,0,0,1-2,3.85,69.88,69.88,0,0,1-10.35,13.24,141.61,141.61,0,0,1-12.24,11.05c-17.07,13.72-35.89,24.7-55.06,34.72s-39,18.86-59,27.07c-10,4.1-20.08,8-30.22,11.67s-20.34,7.27-30.59,10.66q-30.75,10.17-62,18.59T489,421.05c-21.17,4.27-42.48,7.95-63.95,10.59A532.8,532.8,0,0,1,360.26,436a255.22,255.22,0,0,1-32.63-1.94,136.71,136.71,0,0,1-16.24-3.12,67.86,67.86,0,0,1-15.77-6,34.69,34.69,0,0,1-7.17-5.16,22.51,22.51,0,0,1-5.32-7.59,19.93,19.93,0,0,1-1.37-9.29,28,28,0,0,1,2.38-8.67,54.74,54.74,0,0,1,9.57-14,113.39,113.39,0,0,1,12-11.34,235.94,235.94,0,0,1,26.67-18.76c9.23-5.66,18.7-10.9,28.31-15.81,19.25-9.79,39-18.46,59.07-26.34q15-5.9,30.29-11.24t30.65-10.14Q465.5,292,450.46,297.84T420.59,310c-19.74,8.47-39.24,17.54-58.08,27.76-9.43,5.1-18.71,10.45-27.7,16.23a231.81,231.81,0,0,0-25.72,18.87,114.79,114.79,0,0,0-11.24,11,49.56,49.56,0,0,0-8.42,12.63,22.37,22.37,0,0,0-1.8,6.84,14,14,0,0,0,1.05,6.5c1.74,4.06,5.56,7.26,9.94,9.59A62.46,62.46,0,0,0,313,424.67a130.6,130.6,0,0,0,15.49,2.73A250.68,250.68,0,0,0,360.25,429a524.64,524.64,0,0,0,63.87-4.86c42.45-5.57,84.48-14.52,125.89-25.64a1077.35,1077.35,0,0,0,122.09-40.2c19.88-8,39.51-16.58,58.57-26.27,9.52-4.85,18.9-10,28-15.47a256.2,256.2,0,0,0,26.35-17.89,138.58,138.58,0,0,0,11.85-10.4,64,64,0,0,0,9.67-12,30.5,30.5,0,0,0,1.75-3.28,17.55,17.55,0,0,0,.74-1.68l.6-1.71a18.21,18.21,0,0,0,.8-6.85,19,19,0,0,0-.75-3.26,15.63,15.63,0,0,0-1.54-3,20.67,20.67,0,0,0-5-5.08,47.87,47.87,0,0,0-13.74-6.6,109.14,109.14,0,0,0-15.35-3.61,229.58,229.58,0,0,0-31.83-2.69c-21.4-.51-42.86.94-64.22,3.17q-16,1.68-32,4T614.22,250.91Z" transform="translate(-281.69 -165.42)"/><path class="cls-1" d="M460,575.16h-15l-1.84,4.77h-7.69l17-42.43,17.1,42.43h-7.69Zm-12.7-6h10.38l-5.19-14.32Z" transform="translate(-281.69 -165.42)"/><path class="cls-1" d="M515.25,566.73V538.68h7.14v28.05c.37,4.77,4.34,6.89,8.86,6.89s8.92-2.29,8.92-6.89V538.68h7.14v28.05c0,8.78-7,13.79-16.06,13.79C522.45,580.52,515.25,575.22,515.25,566.73Z" transform="translate(-281.69 -165.42)"/><path class="cls-1" d="M610.72,562.72h-5.8v17.21h-7.15V538.68H612s14.29,0,14.29,12c0,6.66-4.4,9.61-8.25,11l8.74,18.27h-7.88Zm-5.8-6.84H612s7.14,0,7.14-5.18-7.14-5.13-7.14-5.13h-7.09Z" transform="translate(-281.69 -165.42)"/><path class="cls-1" d="M695,575.16H680l-1.84,4.77h-7.69l17-42.43,17.1,42.43h-7.69Zm-12.7-6H692.7l-5.19-14.32Z" transform="translate(-281.69 -165.42)"/></svg>