<svg width="184" height="39" viewBox="0 0 184 39" fill="none" xmlns="http://www.w3.org/2000/svg">
<g clip-path="url(#clip0_3_2)">
<path d="M47.6974 30.4733H45.748L44.7729 28.7891L36.4203 14.3146L35.4376 12.622L33.9008 9.9543L32.9181 8.26172L31.2575 5.37675L29.5969 8.26172L28.6218 9.9543L27.0774 12.622L26.1022 14.3146L17.7421 28.7891H21.0725L27.7637 17.1996L28.7388 15.5078L30.2823 12.8325L31.2575 11.14L32.2326 12.8325L33.7761 15.5078L34.7513 17.1928V17.1996L41.4509 28.7891L42.4167 30.4733H35.43L34.454 28.7891L31.2575 23.2525L28.0601 28.7891L27.0925 30.4733H25.1347L26.1098 28.7891L30.2823 21.5599L31.2575 19.8673L32.2326 21.5599L36.4051 28.7891H39.493L33.7761 18.8837L32.801 17.1996L31.2575 14.5251L29.7139 17.1996L28.7388 18.8837L23.0219 28.7891L22.0468 30.4733H14.8175L15.7918 28.7891L25.128 12.6296V12.622L26.1022 10.9379L27.6466 8.26172L28.6218 6.57082L30.2823 3.69258L31.2575 2L32.2326 3.68416V3.69258L33.9008 6.57082L34.8759 8.26172L36.4203 10.9379L37.3946 12.622L46.7223 28.7891L47.6974 30.4733Z" fill="white"/>
<path d="M36.0017 9.19897C36.8865 9.00529 37.7749 8.82649 38.6669 8.66256C39.559 8.49864 40.4549 8.35829 41.3548 8.24152C42.2531 8.11802 43.1555 8.01977 44.0621 7.94679C44.9682 7.87522 45.8768 7.83143 46.7888 7.82974C47.7035 7.82345 48.6175 7.88198 49.5239 8.0049C49.9825 8.06903 50.4358 8.16612 50.8805 8.29541C51.3403 8.42334 51.7767 8.62405 52.173 8.88993C52.3808 9.03397 52.562 9.21288 52.7086 9.41875C52.7827 9.52709 52.8448 9.64314 52.8939 9.76485C52.9383 9.88929 52.9699 10.018 52.9882 10.1488C53.0136 10.4064 52.9884 10.6664 52.9141 10.9143L52.8551 11.092C52.834 11.1494 52.8099 11.2056 52.7827 11.2604C52.7334 11.3718 52.6771 11.4801 52.6143 11.5846C52.3697 11.9899 52.0771 12.3643 51.7427 12.6995C51.4175 13.0294 51.0734 13.3401 50.712 13.63C49.2746 14.7853 47.6898 15.71 46.0755 16.5537C44.4613 17.3975 42.7914 18.1419 41.1073 18.8332C40.2652 19.1785 39.4164 19.5069 38.5625 19.816C37.7086 20.125 36.8497 20.4281 35.9866 20.7136C34.2603 21.2845 32.52 21.8064 30.7657 22.279C29.0113 22.7517 27.2418 23.1674 25.4572 23.5262C23.6745 23.8857 21.88 24.1956 20.0721 24.4179C18.2626 24.6511 16.4406 24.7737 14.6162 24.7851C13.6978 24.7894 12.78 24.7348 11.8685 24.6217C11.4078 24.5618 10.9511 24.4741 10.501 24.359C10.039 24.2465 9.59294 24.0767 9.17303 23.8537C8.95408 23.7352 8.75118 23.5892 8.56926 23.4192C8.37721 23.2396 8.22465 23.0219 8.12127 22.7801C8.02106 22.5322 7.9815 22.264 8.00591 21.9978C8.03295 21.7452 8.10063 21.4987 8.20632 21.2677C8.41208 20.8353 8.68396 20.4375 9.01219 20.0888C9.32537 19.7463 9.6631 19.4272 10.0227 19.1339C10.734 18.5561 11.4844 18.0283 12.2685 17.5541C13.0458 17.0775 13.8432 16.6362 14.6525 16.2228C16.2735 15.3984 17.9366 14.6683 19.6266 14.0047C20.4687 13.6735 21.3189 13.358 22.1773 13.0582C23.0356 12.7585 23.896 12.4738 24.7583 12.2044C23.905 12.5075 23.0561 12.823 22.2118 13.1509C21.3675 13.4787 20.5291 13.82 19.6965 14.1748C18.0342 14.8881 16.3922 15.6519 14.8057 16.5125C14.0116 16.9419 13.2302 17.3924 12.4731 17.8792C11.7156 18.3585 10.9919 18.8894 10.3073 19.4682C9.97101 19.7549 9.65477 20.0644 9.36082 20.3945C9.07126 20.7105 8.83211 21.0692 8.65178 21.458C8.57103 21.6408 8.51987 21.8352 8.50021 22.034C8.48575 22.2209 8.51606 22.4085 8.58863 22.5814C8.73515 22.9232 9.05682 23.1927 9.42566 23.3889C9.80964 23.5854 10.2163 23.7338 10.6366 23.831C11.0663 23.9338 11.5019 24.0105 11.941 24.0609C12.8287 24.1624 13.722 24.2074 14.6154 24.1956C16.4149 24.1689 18.211 24.0322 19.9938 23.7864C23.5684 23.3173 27.1077 22.5637 30.5947 21.6273C34.086 20.7045 37.5191 19.5741 40.8757 18.2421C42.5497 17.5684 44.2028 16.8459 45.8078 16.0299C46.6094 15.6215 47.3993 15.1879 48.1656 14.7272C48.9357 14.2716 49.6768 13.7685 50.3845 13.2208C50.7334 12.948 51.0666 12.6556 51.3823 12.345C51.6935 12.0422 51.9669 11.7029 52.1966 11.3345C52.2513 11.2455 52.3005 11.1533 52.344 11.0583C52.3672 11.0123 52.388 10.965 52.4063 10.9168L52.4568 10.7728C52.5158 10.5866 52.5387 10.3908 52.5242 10.196C52.5113 10.1028 52.4901 10.0109 52.461 9.92148C52.427 9.83284 52.3836 9.74814 52.3314 9.66885C52.2168 9.50295 52.0744 9.35821 51.9103 9.24107C51.5568 8.99521 51.1662 8.80757 50.7533 8.6853C50.3303 8.55293 49.8983 8.45134 49.4607 8.38131C48.5736 8.24366 47.678 8.16797 46.7804 8.15479C44.9783 8.11184 43.1712 8.23394 41.3725 8.42173C40.4743 8.51604 39.5761 8.62832 38.6779 8.75856C37.7796 8.8888 36.8876 9.03561 36.0017 9.19897Z" fill="white"/>
</g>
<path d="M82.056 24.4H74.256L72.768 28H68.784L76.272 11.2H80.112L87.624 28H83.544L82.056 24.4ZM80.832 21.448L78.168 15.016L75.504 21.448H80.832ZM96.4794 28.288C94.0794 28.288 92.2074 27.624 90.8634 26.296C89.5354 24.968 88.8714 23.072 88.8714 20.608V11.2H92.7594V20.464C92.7594 23.472 94.0074 24.976 96.5034 24.976C97.7194 24.976 98.6474 24.616 99.2874 23.896C99.9274 23.16 100.247 22.016 100.247 20.464V11.2H104.087V20.608C104.087 23.072 103.415 24.968 102.071 26.296C100.743 27.624 98.8794 28.288 96.4794 28.288ZM118.634 28L115.394 23.32H115.202H111.818V28H107.93V11.2H115.202C116.69 11.2 117.978 11.448 119.066 11.944C120.17 12.44 121.018 13.144 121.61 14.056C122.202 14.968 122.498 16.048 122.498 17.296C122.498 18.544 122.194 19.624 121.586 20.536C120.994 21.432 120.146 22.12 119.042 22.6L122.81 28H118.634ZM118.562 17.296C118.562 16.352 118.258 15.632 117.65 15.136C117.042 14.624 116.154 14.368 114.986 14.368H111.818V20.224H114.986C116.154 20.224 117.042 19.968 117.65 19.456C118.258 18.944 118.562 18.224 118.562 17.296ZM136.642 24.4H128.842L127.354 28H123.37L130.858 11.2H134.698L142.21 28H138.13L136.642 24.4ZM135.418 21.448L132.754 15.016L130.09 21.448H135.418Z" fill="white"/>
<defs>
<clipPath id="clip0_3_2">
<rect width="45" height="34.9548" fill="white" transform="translate(8 2)"/>
</clipPath>
</defs>
</svg>
